<?xml version="1.0" standalone="no"?>
<!DOCTYPE svg PUBLIC "-//W3C//DTD SVG 20010904//EN"
 "http://www.w3.org/TR/2001/REC-SVG-20010904/DTD/svg10.dtd">
<svg version="1.0" xmlns="http://www.w3.org/2000/svg"
 width="200.000000pt" height="200.000000pt" viewBox="0 0 200.000000 200.000000"
 preserveAspectRatio="xMidYMid meet">
<metadata>
Created by potrace 1.10, written by Peter Selinger 2001-2011
</metadata>
<g transform="translate(0.000000,200.000000) scale(0.100000,-0.100000)"
fill="#000000" stroke="none">
<path d="M553 1723 c269 -2 705 -2 970 0 265 1 46 2 -488 2 -533 0 -750 -1
-482 -2z"/>
<path d="M1340 1175 c-190 -8 -457 -19 -595 -26 -137 -6 -321 -14 -408 -18
-124 -5 -160 -9 -167 -21 -6 -8 -9 -81 -7 -165 l2 -150 80 -3 c145 -6 1589 40
1603 50 13 12 18 323 5 331 -22 13 -204 14 -513 2z m422 -102 l2 -98 3 98 4
98 37 -3 37 -3 3 -157 c2 -157 2 -158 -20 -162 -39 -8 -1625 -49 -1642 -43
-14 6 -16 26 -14 154 l3 148 50 7 c28 3 119 8 203 10 l152 3 2 -65 2 -65 3 68
4 67 62 1 c34 0 269 9 522 18 253 10 488 19 523 20 l62 1 2 -97z"/>
<path d="M268 1063 c8 -3 12 -30 12 -83 0 -53 -4 -80 -12 -83 -7 -3 3 -6 22
-6 28 0 32 2 18 10 -14 8 -18 24 -18 76 l0 66 63 -77 62 -78 3 79 c2 59 7 81
19 91 15 10 12 12 -18 12 -22 0 -29 -3 -21 -9 9 -5 12 -25 10 -62 l-3 -54 -49
63 c-38 49 -55 62 -75 61 -14 0 -20 -3 -13 -6z"/>
<path d="M873 1059 c13 -8 17 -24 17 -79 0 -55 -4 -71 -17 -79 -14 -8 0 -10
54 -11 66 0 74 2 88 24 19 28 6 66 -22 66 -15 0 -15 2 0 18 41 45 10 72 -80
72 -44 -1 -54 -3 -40 -11z m97 -14 c16 -20 5 -45 -23 -53 -20 -6 -20 -7 8 -12
27 -5 30 -9 30 -40 0 -32 -3 -35 -32 -38 l-33 -3 0 80 c0 73 2 81 19 81 10 0
24 -7 31 -15z"/>
<path d="M1277 1062 c8 -5 11 -33 10 -82 -2 -64 -5 -75 -21 -78 -39 -8 -49 55
-14 88 12 11 16 20 9 20 -16 0 -61 -46 -61 -62 0 -8 7 -24 16 -36 12 -18 25
-22 65 -22 37 0 48 3 43 12 -4 7 -7 47 -6 90 l2 78 -27 0 c-17 0 -23 -3 -16
-8z"/>
<path d="M615 1007 c-4 -13 -5 -43 -3 -68 3 -41 5 -44 33 -46 27 -2 28 -2 8 7
-18 7 -23 17 -23 49 0 33 4 40 23 44 22 4 22 4 -2 6 -16 1 -21 5 -17 16 3 8 1
15 -4 15 -5 0 -12 -10 -15 -23z"/>
<path d="M486 989 c-14 -11 -26 -31 -26 -43 0 -53 84 -77 114 -34 22 31 20 45
-9 73 -29 30 -45 31 -79 4z m58 -5 c32 -31 15 -88 -25 -82 -19 2 -25 10 -27
36 -3 32 11 62 29 62 4 0 15 -7 23 -16z"/>
<path d="M696 989 c-14 -11 -26 -31 -26 -43 0 -48 72 -75 101 -39 13 15 12 15
-9 2 -27 -17 -55 -3 -60 29 -3 18 3 21 40 24 l43 3 -22 23 c-28 27 -34 27 -67
1z m52 -7 c2 -7 -7 -12 -23 -12 -24 0 -26 2 -15 15 14 17 31 16 38 -3z"/>
<path d="M1101 1001 c-7 -4 -24 -6 -39 -4 -15 2 -21 0 -14 -3 7 -3 12 -24 12
-49 0 -25 -5 -45 -12 -48 -7 -3 3 -6 22 -6 22 0 30 2 22 8 -8 5 -12 23 -10 47
3 34 6 39 26 37 12 -2 22 1 22 7 0 14 -15 20 -29 11z"/>
<path d="M1368 999 c-21 -12 -23 -40 -6 -57 9 -9 9 -12 -1 -12 -8 0 -11 -7 -8
-20 3 -10 0 -21 -7 -23 -16 -6 6 -41 28 -45 28 -6 63 7 70 24 9 24 -12 44 -45
44 -16 0 -29 5 -29 10 0 6 8 10 19 10 24 0 45 25 37 46 -4 12 -2 15 9 10 8 -3
15 -1 15 4 0 6 -9 10 -19 10 -11 0 -25 2 -33 5 -7 2 -21 0 -30 -6z m40 -23 c2
-10 -1 -23 -7 -29 -16 -16 -34 6 -26 33 8 24 28 22 33 -4z m16 -95 c9 -14 -21
-33 -45 -29 -28 4 -36 25 -12 31 31 8 52 7 57 -2z"/>
<path d="M1482 994 c-26 -18 -30 -75 -8 -93 20 -16 78 -10 84 9 4 12 2 13 -9
3 -18 -17 -34 -16 -53 3 -28 28 -20 44 24 44 40 0 46 5 32 26 -13 20 -47 24
-70 8z m48 -9 c11 -13 8 -15 -20 -15 -28 0 -31 2 -20 15 7 8 16 15 20 15 4 0
13 -7 20 -15z"/>
<path d="M1149 954 c2 -32 -1 -49 -10 -55 -10 -6 -3 -9 20 -9 25 0 31 3 23 13
-5 6 -9 31 -8 55 2 32 -1 42 -13 42 -13 0 -15 -9 -12 -46z"/>
<path d="M1663 970 c-38 -23 -43 -54 -12 -70 39 -21 109 12 109 51 0 18 -28
39 -52 39 -7 0 -28 -9 -45 -20z"/>
<path d="M790 950 c0 -5 14 -10 30 -10 17 0 30 5 30 10 0 6 -13 10 -30 10 -16
0 -30 -4 -30 -10z"/>
<path d="M553 283 c269 -2 705 -2 970 0 265 1 46 2 -488 2 -533 0 -750 -1
-482 -2z"/>
</g>
</svg>
